<?xml version="1.0" encoding="utf-8"?>
<!-- Generator: Adobe Illustrator 24.1.1, SVG Export Plug-In . SVG Version: 6.00 Build 0)  -->
<svg version="1.1" xmlns="http://www.w3.org/2000/svg" xmlns:xlink="http://www.w3.org/1999/xlink" x="0px" y="0px"
	 viewBox="0 0 680.5 832" style="enable-background:new 0 0 680.5 832;" xml:space="preserve">
<style type="text/css">
	.st0{display:none;}
	.st1{display:inline;fill:#3F3D56;}
	.st2{opacity:0.1;fill:#4F45FF;enable-background:new    ;}
	.st3{fill:#3F3D56;}
	.st4{opacity:0.1;enable-background:new    ;}
	.st5{fill:#535461;}
	.st6{fill:#F9A826;}
	.st7{opacity:0.1;}
	.st8{fill:#FFFFFF;}
	.st9{opacity:0.1;fill:none;stroke:#000000;stroke-width:2;stroke-miterlimit:10;enable-background:new    ;}
	.st10{fill:#2F2E41;}
	.st11{fill:#FFB8B8;}
</style>
<g id="Layer_4">
</g>
<g id="Layer_3" class="st0">
	<ellipse class="st1" cx="350.8" cy="745.9" rx="308.5" ry="54.5"/>
</g>
<g id="Layer_2">
	<path class="st2" d="M644.1,734.7c0,20.3-142.8,89.7-313,89.7S27.9,755,27.9,734.7S161,751,331.1,751S644.1,714.5,644.1,734.7z"/>
	<ellipse class="st3" cx="336" cy="723.8" rx="308.1" ry="36.7"/>
	<ellipse class="st4" cx="337.9" cy="728.3" rx="102" ry="22"/>
	<path class="st3" d="M644.1,725.2c0,20.3-142.8,89.7-313,89.7S27.9,745.4,27.9,725.2s133,16.3,303.2,16.3S644.1,704.9,644.1,725.2z
		"/>
</g>
<g id="f080dbb7-9b2b-439b-a118-60b91c514f72">
	<rect x="70" y="41.1" class="st5" width="444" height="657"/>
	<polygon class="st6" points="393,715.1 70,698.1 70,41.1 393,24.1 	"/>
	<circle class="st5" cx="366" cy="401.1" r="4"/>
	<polygon class="st5" points="366,401.7 368.8,406.5 371.5,411.3 366,411.3 360.5,411.3 363.2,406.5 	"/>
	<polygon class="st6" points="407,715.1 387.2,715 388,24.1 407,24.1 	"/>
	<g class="st7">
		<polygon class="st8" points="407.2,715 387.2,715 388.2,24 407.2,24 		"/>
	</g>
	<circle class="st4" cx="366" cy="372.1" r="13"/>
	<circle class="st5" cx="366" cy="370.1" r="13"/>
	<line class="st9" x1="122.8" y1="40.1" x2="122.8" y2="701.2"/>
	<line class="st9" x1="179.8" y1="36.1" x2="179.8" y2="703.2"/>
	<line class="st9" x1="236.8" y1="33.1" x2="236.8" y2="707"/>
	<line class="st9" x1="293.8" y1="30.1" x2="293.8" y2="711.2"/>
	<line class="st9" x1="350.8" y1="27.1" x2="350.8" y2="712"/>
	<ellipse class="st10" cx="533.2" cy="119.3" rx="39.5" ry="37"/>
	<path class="st11" d="M418.2,349.8l-10,14c0,0-48,10-30,25s44-14,44-14l14-18L418.2,349.8z"/>
	<path class="st6" d="M470.2,190.8c0,0-13,0-16,18s-6,78-6,78s-42,55-35,62s15,20,20,18s48-61,48-61L470.2,190.8z"/>
	<path class="st4" d="M470.2,190.8c0,0-13,0-16,18s-6,78-6,78s-42,55-35,62s15,20,20,18s48-61,48-61L470.2,190.8z"/>
	<path class="st11" d="M510.2,139.8c0,0-1,39-13,41s-8,15-8,15s39,23,65,0l5-12c0,0-18-13-10-31L510.2,139.8z"/>
	<path class="st10" d="M443.2,379.8c0,0-59,110-37,144s55,104,60,104s33-14,31-23s-32-76-40-82s-4-22-3-23s34-54,34-54s-1,84,3,97
		s-1,106,4,110s28,11,32,5s16-97,8-118l15-144L443.2,379.8z"/>
	<path class="st10" d="M497.2,646.8l-25,46c0,0-36,26-11,30s40-6,40-6l22-16v-46L497.2,646.8z"/>
	<path class="st10" d="M463.2,620.8l13,31c0,0,5,13,0,16s-19,21-10,23c1.8,0.4,3.7,0.5,5.5,0.5c15.1,0.3,29.7-5.7,40.4-16.4l8.1-8.1
		c0,0-27.8-63.9-27.4-63.5S463.2,620.8,463.2,620.8z"/>
	<circle class="st11" cx="535.2" cy="129.8" r="34"/>
	<path class="st6" d="M554.7,177.3l-10.5,10.5c0,0-32,12-47,0c0,0,5.5-11.5,5.5-10.5s-43.5,7.5-47.5,25.5s3,49,3,49s-28,132-17,135
		s114,28,113,9s8-97,8-97l35-67c0,0-5-22-17-29S554.7,177.3,554.7,177.3z"/>
	<path class="st11" d="M510.2,372.8l-13,8c0,0-50,34-24,40s41-24,41-24l10-12L510.2,372.8z"/>
	<path class="st4" d="M584.2,225.8l9,9c0,0,6,84-6,101s-67,63-70,60s-22-18-18-20s57.2-57.6,57.2-57.6l-4.2-77.4L584.2,225.8z"/>
	<path class="st6" d="M588.2,222.8l9,9c0,0,6,84-6,101s-67,63-70,60s-22-18-18-20s57.2-57.6,57.2-57.6l-4.2-77.4L588.2,222.8z"/>
	<path class="st10" d="M521.2,81.5c0,0-11.6-4.2-27.3,4.7l8.4,2.1c0,0-12.6,1.1-14.2,17.9h5.8c0,0-3.7,14.7,0,18.9l2.4-4.5l6.8,13.7
		l1.6-6.8l3.2,1.1l2.1-11c0,0,5.3,7.9,9.5,8.4v-6.8c0,0,11.6,13.1,15.2,12.6l-5.3-7.4l7.4,1.6l-3.2-5.3l18.9,5.3l-4.2-5.3l13.1,4.2
		l6.3,2.6c0,0,8.9-20.5-3.7-34.7S533,75.5,521.2,81.5z"/>
	<circle class="st6" cx="594.7" cy="716.3" r="29.9"/>
	<circle class="st6" cx="594.7" cy="676.6" r="21.6"/>
	<circle class="st6" cx="594.7" cy="643.2" r="15.3"/>
</g>
</svg>
