<?xml version="1.0" encoding="utf-8"?>
<!-- Generator: Adobe Illustrator 24.1.1, SVG Export Plug-In . SVG Version: 6.00 Build 0)  -->
<svg version="1.1" id="Layer_1" xmlns="http://www.w3.org/2000/svg" xmlns:xlink="http://www.w3.org/1999/xlink" x="0px" y="0px"
	 viewBox="0 0 182 272" style="enable-background:new 0 0 182 272;" xml:space="preserve">
<style type="text/css">
	.st0{fill:#FCBD10;}
	.st1{opacity:0.83;}
	.st2{opacity:0.34;fill:#FFFFFF;}
	.st3{opacity:0.18;fill:#FFFFFF;}
	.st4{opacity:0.25;fill-rule:evenodd;clip-rule:evenodd;fill:#FFFFFF;}
	.st5{fill:none;}
	.st6{display:none;fill:#FFFFFF;}
	.st7{font-family:'Montserrat-ExtraLight';}
	.st8{font-size:6.2055px;}
	.st9{fill:#FFFFFF;}
	.st10{font-family:'Montserrat-Regular';}
	.st11{font-size:14.3085px;}
	.st12{fill-rule:evenodd;clip-rule:evenodd;fill:#FFFFFF;}
	.st13{fill:url(#SVGID_1_);}
	.st14{fill:url(#SVGID_2_);}
	.st15{opacity:0.37;fill:url(#SVGID_3_);enable-background:new    ;}
	.st16{fill:url(#SVGID_4_);}
	.st17{fill:url(#SVGID_5_);}
	.st18{fill:url(#SVGID_6_);}
	.st19{fill:url(#SVGID_7_);}
	.st20{fill:url(#SVGID_8_);}
	.st21{fill:url(#SVGID_9_);}
</style>
<g>
	<path class="st0" d="M181.7,0.5v272H24.4c-13.6,0-24.7-11.1-24.7-24.7V25.2c0-13.6,11.1-24.7,24.7-24.7H181.7z"/>
	<g>
		<g class="st1">
			<path class="st2" d="M181.7,226.3v46.2H24.4c-13.6,0-24.7-11.1-24.7-24.7v-14.2c39-22.4,76.7-57.1,137.1-23.3
				C153,219.3,167.9,224.2,181.7,226.3z"/>
			<path class="st2" d="M181.7,260.1v12.4H24.4c-13.6,0-24.7-11.1-24.7-24.7v-53.3c29.6-10.9,66.7-15.5,145.6,45.9
				C158.3,250.5,170.4,256.8,181.7,260.1z"/>
			<path class="st3" d="M181.7,182.5v90H24.4c-13.6,0-24.7-11.1-24.7-24.7v-22.6C68.2,229.6,118.8,181.3,181.7,182.5z"/>
		</g>
		<path class="st4" d="M-0.3,25.2v25.6c25-18.8,59.6-30,107-20.3c32.6,6.7,56.9,5.1,75-1.1V0.5H24.4C10.8,0.5-0.3,11.6-0.3,25.2z"/>
	</g>
	<g>
		<g>
			<rect x="41.1" y="160.7" class="st5" width="101.4" height="7.6"/>
			<text transform="matrix(1 0 0 1 56.2141 165.0953)" class="st6 st7 st8">Lorem ipsum dolor sit amet</text>
			<text id="YOUR_COMPANY" transform="matrix(1 0 0 1 62.9157 152.2857)" class="st9 st10 st11">IdeasHub</text>
			<path class="st6" d="M90.7,97.5c-2.1,0-3.9,1.7-3.9,3.9c0,2.1,1.7,3.9,3.9,3.9c2.1,0,3.9-1.7,3.9-3.9
				C94.6,99.2,92.8,97.5,90.7,97.5z M90.7,97.5c-2.1,0-3.9,1.7-3.9,3.9c0,2.1,1.7,3.9,3.9,3.9c2.1,0,3.9-1.7,3.9-3.9
				C94.6,99.2,92.8,97.5,90.7,97.5z M90.7,97.5c-2.1,0-3.9,1.7-3.9,3.9c0,2.1,1.7,3.9,3.9,3.9c2.1,0,3.9-1.7,3.9-3.9
				C94.6,99.2,92.8,97.5,90.7,97.5z M90.7,97.5c-2.1,0-3.9,1.7-3.9,3.9c0,2.1,1.7,3.9,3.9,3.9c2.1,0,3.9-1.7,3.9-3.9
				C94.6,99.2,92.8,97.5,90.7,97.5z M90.7,97.5c-2.1,0-3.9,1.7-3.9,3.9c0,2.1,1.7,3.9,3.9,3.9c2.1,0,3.9-1.7,3.9-3.9
				C94.6,99.2,92.8,97.5,90.7,97.5z M90.7,80.3c-15.4,0-27.9,12.5-27.9,27.9c0,11.5,7,21.4,16.9,25.7c5.5-3.6,7.4-13.3,7.9-16.5
				h-0.7c-0.9,0-1.7-0.4-2.1-1.2c-0.1-0.2-0.2-0.4-0.3-0.6c-3.7,1.1-4,6.7-4.8,9.9c-0.1,0.7-1.2,0.7-1.4,0.1
				c-4.3-10.7,1.5-17.7,3.1-19.3c-0.4-4,0.5-7.8,1.9-11h15.1c1.4,3.3,2.3,7.1,1.9,11.2c0-0.1,0-0.2,0-0.4c1.5,1.5,7.6,8.5,3.2,19.4
				c-0.3,0.7-1.3,0.6-1.4-0.1c-0.7-3.2-1.1-8.8-4.8-9.9v-0.1c-0.1,0.2-0.3,0.4-0.4,0.6c-0.5,0.7-1.3,1.2-2.1,1.2h-0.6
				c0.5,3.2,2.3,12.9,7.9,16.5c9.9-4.3,16.9-14.1,16.9-25.7C118.6,92.8,106.1,80.3,90.7,80.3z M83.9,93.6c2.4-4.7,5.6-7.9,6.7-8.9
				c0,0,0,0,0,0l0,0c1.1,1,4.3,4.2,6.7,8.9H83.9z M90.7,97.5c-2.1,0-3.9,1.7-3.9,3.9c0,2.1,1.7,3.9,3.9,3.9c2.1,0,3.9-1.7,3.9-3.9
				C94.6,99.2,92.8,97.5,90.7,97.5z M90.7,97.5c-2.1,0-3.9,1.7-3.9,3.9c0,2.1,1.7,3.9,3.9,3.9c2.1,0,3.9-1.7,3.9-3.9
				C94.6,99.2,92.8,97.5,90.7,97.5z M90.7,97.5c-2.1,0-3.9,1.7-3.9,3.9c0,2.1,1.7,3.9,3.9,3.9c2.1,0,3.9-1.7,3.9-3.9
				C94.6,99.2,92.8,97.5,90.7,97.5z M90.7,97.5c-2.1,0-3.9,1.7-3.9,3.9c0,2.1,1.7,3.9,3.9,3.9c2.1,0,3.9-1.7,3.9-3.9
				C94.6,99.2,92.8,97.5,90.7,97.5z M90.7,97.5c-2.1,0-3.9,1.7-3.9,3.9c0,2.1,1.7,3.9,3.9,3.9c2.1,0,3.9-1.7,3.9-3.9
				C94.6,99.2,92.8,97.5,90.7,97.5z"/>
		</g>
		<path class="st12" d="M34.1,83.2l0.8,1.4c1,1.9,2.6,3.4,4.5,4.5l1.4,0.8l-1.4,0.8c-1.9,1-3.4,2.6-4.5,4.5l-0.8,1.4l-0.8-1.4
			c-1-1.9-2.6-3.4-4.5-4.5l-1.4-0.8l1.4-0.8c1.9-1,3.4-2.6,4.5-4.5L34.1,83.2z"/>
		<path class="st12" d="M94.8,47.8l0.7,1.3c1,1.8,2.5,3.3,4.3,4.3l1.3,0.7l-1.3,0.7c-1.8,1-3.3,2.5-4.3,4.3l-0.7,1.3l-0.7-1.3
			c-1-1.8-2.5-3.3-4.3-4.3l-1.3-0.7l1.3-0.7c1.8-1,3.3-2.5,4.3-4.3L94.8,47.8z"/>
		<path class="st12" d="M147.1,98.5l0.8,1.4c1,1.9,2.6,3.4,4.5,4.5l1.4,0.8l-1.4,0.8c-1.9,1-3.4,2.6-4.5,4.5l-0.8,1.4l-0.8-1.4
			c-1-1.9-2.6-3.4-4.5-4.5l-1.4-0.8l1.4-0.8c1.9-1,3.4-2.6,4.5-4.5L147.1,98.5z"/>
		<path class="st12" d="M94.2,179.8l0.6,1.2c0.9,1.6,2.1,2.8,3.7,3.7l1.2,0.6l-1.2,0.6c-1.6,0.9-2.8,2.1-3.7,3.7l-0.6,1.2l-0.6-1.2
			c-0.9-1.6-2.1-2.8-3.7-3.7l-1.2-0.6l1.2-0.6c1.6-0.9,2.8-2.1,3.7-3.7L94.2,179.8z"/>
	</g>
	<g>
		<g id="Layer_2_1_">
			<g id="OBJECTS">
				
					<linearGradient id="SVGID_1_" gradientUnits="userSpaceOnUse" x1="67.6001" y1="167.1447" x2="112.582" y2="167.1447" gradientTransform="matrix(1 0 0 -1 0 274)">
					<stop  offset="0" style="stop-color:#FF554C"/>
					<stop  offset="1" style="stop-color:#FFB68C"/>
				</linearGradient>
				<path class="st13" d="M96.3,126.9c-0.1,0.8-0.9,1.3-1.7,1.2c-0.8-0.1-1.3-0.9-1.2-1.7c0.1-0.8,0.9-1.3,1.7-1.2
					C95.9,125.3,96.4,126.1,96.3,126.9z M90.2,85.7c-12.4-0.1-22,9.7-22.6,21.8c-0.1,3,0.1,5.6,1.3,8c0.4,0.4,0.7,0.7,1,1.1
					c3.2,3.6,7.8,3.4,9.3,3c-6-0.2-9.1-4.7-9-11.1c0.3-10.3,8.7-18.6,19-18.5c4.5,0,8.9,1.7,12.3,4.7c0.7,0.6,0.7,1.7,0.1,2.3
					c-0.2,0.2-0.5,0.4-0.8,0.5c-1.8,0.5-4,0.4-4.5,0.2c-1.7-0.5-2.1,1.1-1,1.6c0.6,0.2,1.3,0.3,2,0.3c0.3,0,0.5,0.2,0.5,0.4
					c0,0.2-0.1,0.4-0.3,0.5c-1.4,0.4-2.8,0.7-4.2,0.8c-2.2,0.2-2,2,0,2c4.8-0.1,8.9-4.9,10.6-6c1.5,2.1,2.9,4.5,3.4,7.2
					c-0.3,0.3-2.9,4-2.8,6.4c0.1,1.5,1.8,1.6,1.7-0.5c-0.1-0.8,0.1-1.6,0.4-2.4c0.1-0.3,0.5-0.5,0.8-0.3c0.2,0.1,0.4,0.3,0.4,0.5
					c0,0.2,0,0.4,0,0.6c0,6.4-3.3,10.9-8.3,13.9c-0.8,0.5-1.2,1.3-1,2.2v0c0.2,1.2,1.3,2,2.5,1.8c0.3-0.1,0.6-0.2,0.8-0.3
					c6.2-4.1,10.6-11.1,10.6-18.8C112.7,95.6,102.7,85.7,90.2,85.7z"/>
				
					<linearGradient id="SVGID_2_" gradientUnits="userSpaceOnUse" x1="260.0308" y1="265.9359" x2="311.485" y2="265.9359" gradientTransform="matrix(0.98 0.18 0.18 -0.98 -237.46 317.3)">
					<stop  offset="0" style="stop-color:#FFED44"/>
					<stop  offset="4.000000e-02" style="stop-color:#FAE237"/>
					<stop  offset="0.12" style="stop-color:#F3D224"/>
					<stop  offset="0.2" style="stop-color:#EFC919"/>
					<stop  offset="0.28" style="stop-color:#EEC615"/>
					<stop  offset="0.67" style="stop-color:#D98D3E"/>
					<stop  offset="0.89" style="stop-color:#CB6037"/>
					<stop  offset="1" style="stop-color:#C33431"/>
				</linearGradient>
				<path class="st14" d="M95.7,133.8c-1.1,0.3-2.2-0.4-2.5-1.6c-0.1-0.2-0.1-0.5,0-0.7v0c0.1-0.9,0.7-1.6,1.6-1.8
					c9.8-2.3,17.8-11.5,17.9-22c0.1-12.1-10-22-22.4-22c-12.4-0.1-22,9.7-22.6,21.8c-0.5,8.8,4.7,11.3,7,13.1
					C72,120,67,120.1,65,108.1c0-0.3,0-0.7,0-1c0.1-14.2,11.7-25.7,25.9-25.6c14.2,0.1,25.7,11.7,25.6,25.9
					C116.4,119.7,107,131.1,95.7,133.8z M89.9,130.7c-1.2-0.2-2.3,0.6-2.5,1.7s0.6,2.3,1.7,2.5c1.2,0.2,2.3-0.6,2.5-1.7
					C91.9,132,91.1,130.9,89.9,130.7L89.9,130.7z"/>
				
					<linearGradient id="SVGID_3_" gradientUnits="userSpaceOnUse" x1="68.5758" y1="169.6053" x2="74.5477" y2="152.3014" gradientTransform="matrix(1 0 0 -1 0 274)">
					<stop  offset="0" style="stop-color:#FFFFFF"/>
					<stop  offset="1" style="stop-color:#222221"/>
				</linearGradient>
				<path class="st15" d="M79.2,119.6c-2.7-0.1-4.9-1.1-6.4-2.7l0,0c-5.4-2.6-7.7-8.4-7.7-12.9c-0.1,1-0.2,2-0.2,3.1
					c0,0.3,0,0.7,0,1c2,12,7,11.8,9.6,12.4C75.9,119.9,77.9,119.9,79.2,119.6z"/>
				
					<linearGradient id="SVGID_4_" gradientUnits="userSpaceOnUse" x1="260.1123" y1="256.4692" x2="294.3066" y2="256.4692" gradientTransform="matrix(0.98 0.18 0.18 -0.98 -237.46 317.3)">
					<stop  offset="0" style="stop-color:#FF554C"/>
					<stop  offset="1" style="stop-color:#FFB68C"/>
				</linearGradient>
				<path class="st16" d="M92.9,111.3c-4,5.3-9.4,9.2-16.4,8.1c-6.9-1.1-11.2-7.7-11.3-15.4c-1.9,13.3,6.5,20.2,15.1,20.7
					c7.5,0.5,13.9-3.9,17.6-9.1C96.6,113.5,94,112,92.9,111.3z"/>
				
					<linearGradient id="SVGID_5_" gradientUnits="userSpaceOnUse" x1="260.1123" y1="257.593" x2="291.7025" y2="257.593" gradientTransform="matrix(0.98 0.18 0.18 -0.98 -237.46 317.3)">
					<stop  offset="0" style="stop-color:#FFED44"/>
					<stop  offset="4.000000e-02" style="stop-color:#FAE237"/>
					<stop  offset="0.12" style="stop-color:#F3D224"/>
					<stop  offset="0.2" style="stop-color:#EFC919"/>
					<stop  offset="0.28" style="stop-color:#EEC615"/>
					<stop  offset="0.67" style="stop-color:#D98D3E"/>
					<stop  offset="0.89" style="stop-color:#CB6037"/>
					<stop  offset="1" style="stop-color:#C33431"/>
				</linearGradient>
				<path class="st17" d="M95.6,113.2c-0.9-0.7-1.8-1.3-2.8-1.9c-4,5.3-9.4,9.2-16.4,8.1c-6.9-1.1-11.2-7.7-11.3-15.4c0,0,0,0,0,0
					c-1.1,12.2,6.5,17.8,14,18.2C86.1,122.7,92.2,118.7,95.6,113.2z"/>
				
					<linearGradient id="SVGID_6_" gradientUnits="userSpaceOnUse" x1="48.8273" y1="151.8553" x2="32.7006" y2="132.6496" gradientTransform="matrix(1 -5.000000e-02 -5.000000e-02 -1 62.34 257.18)">
					<stop  offset="0" style="stop-color:#FFFFFF"/>
					<stop  offset="0.32" style="stop-color:#B3F2FD"/>
					<stop  offset="1" style="stop-color:#04D3F7"/>
				</linearGradient>
				<path class="st18" d="M98.5,116c-2.5-0.9-4.6-2.5-6.1-4.7c-0.4-0.5-0.4-1.2,0.1-1.7c1.9-2.3,7.4-9,9.1-10.5
					c2.1-1.8,6.4-4,7.4-3.3c1,0.7,0.1,5.4-1.1,8c-0.8,1.7-5.9,9.1-7.7,11.6C99.7,116,99.1,116.2,98.5,116z"/>
				
					<linearGradient id="SVGID_7_" gradientUnits="userSpaceOnUse" x1="51.2037" y1="154.2413" x2="35.8529" y2="136.6192" gradientTransform="matrix(1 -5.000000e-02 -5.000000e-02 -1 62.34 257.18)">
					<stop  offset="0" style="stop-color:#FFFFFF"/>
					<stop  offset="0.35" style="stop-color:#B3E6FF"/>
					<stop  offset="1" style="stop-color:#1FB4FF"/>
				</linearGradient>
				<path class="st19" d="M108.9,95.9L108.9,95.9L108.9,95.9C108.8,95.9,108.8,95.8,108.9,95.9L108.9,95.9c-1.2-0.6-5.3,1.5-7.4,3.3
					c-1.7,1.5-7.2,8.1-9.1,10.5c-0.4,0.5-0.4,1.2-0.1,1.7c0.5,0.7,1.1,1.4,1.7,2l0,0c0.2,0.1,0.3,0.3,0.5,0.4l0.1,0.1
					c0.1,0.1,0.3,0.2,0.4,0.3l0.1,0.1c0.2,0.1,0.3,0.2,0.5,0.4l0.1,0c0.1,0.1,0.3,0.2,0.4,0.3l0.1,0.1c0.1,0.1,0.3,0.2,0.4,0.3
					l0.1,0c0.2,0.1,0.3,0.2,0.5,0.3l0.1,0.1c0.1,0.1,0.3,0.1,0.4,0.2l0.1,0.1c0.2,0.1,0.4,0.1,0.5,0.2l0,0l0,0
					c0.6,0.2,1.2,0,1.6-0.5c1.8-2.5,6.9-9.9,7.7-11.6C109,101.3,109.8,96.6,108.9,95.9z M107,103.6c-0.9,1.6-6.5,8.7-8.4,11.1
					c-0.7,0.9-1.9,0.4-3.4-0.8c-0.9-0.7-2.3-2.2-1.5-3.3c1.8-2.4,7-9.3,8.6-10.9c1.7-1.6,5-3.6,6.5-3.7
					C109.4,97.1,108.3,101.2,107,103.6z"/>
				
					<linearGradient id="SVGID_8_" gradientUnits="userSpaceOnUse" x1="99.4728" y1="165.6869" x2="93.1778" y2="157.4241" gradientTransform="matrix(1 0 0 -1 0 274)">
					<stop  offset="0" style="stop-color:#FFED44"/>
					<stop  offset="4.000000e-02" style="stop-color:#FAE237"/>
					<stop  offset="0.12" style="stop-color:#F3D224"/>
					<stop  offset="0.2" style="stop-color:#EFC919"/>
					<stop  offset="0.28" style="stop-color:#EEC615"/>
					<stop  offset="0.67" style="stop-color:#D98D3E"/>
					<stop  offset="0.89" style="stop-color:#CB6037"/>
					<stop  offset="1" style="stop-color:#C33431"/>
				</linearGradient>
				<path class="st20" d="M93.4,108.3l-3.4,3.2c-0.1,0.1-0.3,0.1-0.5,0c-0.1-0.1-0.1-0.2-0.1-0.3l0.7-2.5c0.1-0.2,0.2-0.4,0.3-0.5
					l2.7-2.5c0.3-0.2,0.7-0.3,0.9-0.1l1,0.7L93.4,108.3z M101.1,114.1l-2.2,4.2c-0.1,0.2-0.1,0.4,0.1,0.5c0.1,0.1,0.2,0.1,0.3,0
					l2.2-1.4c0.2-0.1,0.3-0.3,0.4-0.5l1.7-3.2c0.2-0.3,0.1-0.7-0.2-0.9l-1-0.7L101.1,114.1z M94.6,115.3l1.6-1.5l2.7-3.5
					c0.1-0.2,0.1-0.4-0.1-0.6c0,0,0,0,0,0l-0.4-0.3c-0.2-0.1-0.4-0.1-0.6,0.1l-2.7,3.5l-1,2c-0.1,0.2,0,0.4,0.2,0.4
					C94.3,115.4,94.5,115.4,94.6,115.3L94.6,115.3z"/>
				
					<linearGradient id="SVGID_9_" gradientUnits="userSpaceOnUse" x1="52.0935" y1="155.6952" x2="46.1999" y2="149.3928" gradientTransform="matrix(1 -5.000000e-02 -5.000000e-02 -1 62.34 257.18)">
					<stop  offset="0" style="stop-color:#FFED44"/>
					<stop  offset="4.000000e-02" style="stop-color:#FAE237"/>
					<stop  offset="0.12" style="stop-color:#F3D224"/>
					<stop  offset="0.2" style="stop-color:#EFC919"/>
					<stop  offset="0.28" style="stop-color:#EEC615"/>
					<stop  offset="0.67" style="stop-color:#D98D3E"/>
					<stop  offset="0.89" style="stop-color:#CB6037"/>
					<stop  offset="1" style="stop-color:#C33431"/>
				</linearGradient>
				<path class="st21" d="M104.3,99.5c-1.2,0.1-2.1,1.1-2,2.2c0.1,1.2,1.1,2.1,2.2,2c1.2-0.1,2.1-1.1,2-2.2
					C106.4,100.3,105.4,99.4,104.3,99.5C104.3,99.5,104.3,99.5,104.3,99.5z M104.4,103.2c-0.9,0-1.6-0.6-1.7-1.5s0.6-1.6,1.5-1.7
					c0.9,0,1.6,0.6,1.7,1.5C106,102.4,105.3,103.2,104.4,103.2L104.4,103.2z"/>
			</g>
		</g>
	</g>
</g>
</svg>
